HIERARCHY
ROOT newVegas:Hips
{
	OFFSET 0.000000 96.479958 0.000000
	CHANNELS 6 Xposition Yposition Zposition Xrotation Yrotation Zrotation
	JOINT newVegas:Pelvis
	{
		OFFSET 0.000000 0.000000 0.000000
		CHANNELS 3 Xrotation Yrotation Zrotation
		JOINT newVegas:LeftUpLeg
		{
			OFFSET 18.735201 -5.666702 -4.541200
			CHANNELS 3 Xrotation Yrotation Zrotation
			JOINT newVegas:LeftLeg
			{
				OFFSET -0.021200 -31.938179 0.493100
				CHANNELS 3 Xrotation Yrotation Zrotation
				JOINT newVegas:LeftFoot
				{
					OFFSET 0.021200 -31.938179 -4.336299
					CHANNELS 3 Xrotation Yrotation Zrotation
					JOINT newVegas:LeftToeBase
					{
						OFFSET 0.943001 -26.722000 15.023500
						CHANNELS 3 Xrotation Yrotation Zrotation
						End Site
						{
							OFFSET 0.000000 30.670183 0.000000
						}
					}
				}
				JOINT newVegas:Left_PantLeg
				{
					OFFSET 0.663870 -9.044666 -1.108900
					CHANNELS 3 Xrotation Yrotation Zrotation
					End Site
					{
						OFFSET 1.415995 20.635357 0.000000
					}
				}
			}
		}
		JOINT newVegas:RightUpLeg
		{
			OFFSET -18.735201 -5.666702 -4.541200
			CHANNELS 3 Xrotation Yrotation Zrotation
			JOINT newVegas:RightLeg
			{
				OFFSET 0.018946 -31.938133 0.493100
				CHANNELS 3 Xrotation Yrotation Zrotation
				JOINT newVegas:RightFoot
				{
					OFFSET -0.018946 -31.938126 -4.336299
					CHANNELS 3 Xrotation Yrotation Zrotation
					JOINT newVegas:RightToeBase
					{
						OFFSET -0.943001 -26.722004 15.023500
						CHANNELS 3 Xrotation Yrotation Zrotation
						End Site
						{
							OFFSET 0.000000 30.670187 0.000000
						}
					}
				}
				JOINT newVegas:Right_PantLeg
				{
					OFFSET -0.661674 -9.044716 -1.108900
					CHANNELS 3 Xrotation Yrotation Zrotation
					End Site
					{
						OFFSET -1.415958 20.635269 0.000000
					}
				}
			}
		}
	}
	JOINT newVegas:Spine
	{
		OFFSET 0.000000 10.199997 -0.299500
		CHANNELS 3 Xrotation Yrotation Zrotation
		JOINT newVegas:Spine1
		{
			OFFSET 0.000000 11.900002 -1.516600
			CHANNELS 3 Xrotation Yrotation Zrotation
			JOINT newVegas:Spine2
			{
				OFFSET 0.000000 13.600006 -2.842500
				CHANNELS 3 Xrotation Yrotation Zrotation
				JOINT newVegas:Neck
				{
					OFFSET 0.000000 9.624100 -2.890100
					CHANNELS 3 Xrotation Yrotation Zrotation
					JOINT newVegas:Head
					{
						OFFSET 0.000000 14.068802 -1.351900
						CHANNELS 3 Xrotation Yrotation Zrotation
						JOINT newVegas:Hair_Back
						{
							OFFSET 0.000000 3.231903 -17.524799
							CHANNELS 3 Xrotation Yrotation Zrotation
							End Site
							{
								OFFSET 0.000000 19.849884 0.000000
							}
						}
						JOINT newVegas:Hair_Front
						{
							OFFSET 0.000000 31.260406 4.573800
							CHANNELS 3 Xrotation Yrotation Zrotation
							JOINT newVegas:Hair_Front1
							{
								OFFSET 0.000000 2.284103 11.993300
								CHANNELS 3 Xrotation Yrotation Zrotation
								JOINT newVegas:Hair_Front2
								{
									OFFSET 0.000000 2.284103 11.993300
									CHANNELS 3 Xrotation Yrotation Zrotation
									End Site
									{
										OFFSET 0.000000 12.208862 0.000000
									}
								}
							}
						}
						JOINT newVegas:Jowel
						{
							OFFSET 0.000000 -7.458206 6.864100
							CHANNELS 3 Xrotation Yrotation Zrotation
							End Site
							{
								OFFSET 0.000000 19.849884 0.000000
							}
						}
					}
				}
				JOINT newVegas:LeftShoulder
				{
					OFFSET 15.263000 10.923401 -0.547700
					CHANNELS 3 Xrotation Yrotation Zrotation
					JOINT newVegas:LeftArm
					{
						OFFSET 25.438599 -2.830597 -13.032500
						CHANNELS 3 Xrotation Yrotation Zrotation
						JOINT newVegas:LeftForeArm
						{
							OFFSET 29.960503 0.000000 0.000000
							CHANNELS 3 Xrotation Yrotation Zrotation
							JOINT newVegas:LeftHand
							{
								OFFSET 27.849251 0.000000 0.000000
								CHANNELS 3 Xrotation Yrotation Zrotation
								JOINT newVegas:LeftHandThumb1
								{
									OFFSET 4.487587 -3.305161 6.305391
									CHANNELS 3 Xrotation Yrotation Zrotation
									JOINT newVegas:LeftHandThumb2
									{
										OFFSET 5.480453 -3.164139 3.164143
										CHANNELS 3 Xrotation Yrotation Zrotation
										JOINT newVegas:LeftHandThumb3
										{
											OFFSET 5.159721 -2.978973 2.978967
											CHANNELS 3 Xrotation Yrotation Zrotation
											End Site
											{
												OFFSET 2.494507 5.926697 1.738678
											}
										}
									}
								}
								JOINT newVegas:LeftHandIndex1
								{
									OFFSET 18.578728 -0.527832 5.208049
									CHANNELS 3 Xrotation Yrotation Zrotation
									JOINT newVegas:LeftHandIndex2
									{
										OFFSET 3.192009 0.000000 0.000000
										CHANNELS 3 Xrotation Yrotation Zrotation
										JOINT newVegas:LeftHandIndex3
										{
											OFFSET 3.835129 0.000000 0.000000
											CHANNELS 3 Xrotation Yrotation Zrotation
											End Site
											{
												OFFSET -0.034599 3.816971 0.371180
											}
										}
									}
								}
								JOINT newVegas:LeftHandMiddle1
								{
									OFFSET 18.476105 0.000000 0.000000
									CHANNELS 3 Xrotation Yrotation Zrotation
									JOINT newVegas:LeftHandMiddle2
									{
										OFFSET 3.324875 0.000000 0.000000
										CHANNELS 3 Xrotation Yrotation Zrotation
										JOINT newVegas:LeftHandMiddle3
										{
											OFFSET 4.596550 0.000000 0.000000
											CHANNELS 3 Xrotation Yrotation Zrotation
											End Site
											{
												OFFSET 0.057701 4.578827 0.399218
											}
										}
									}
								}
								JOINT newVegas:LeftHandRing1
								{
									OFFSET 17.732719 0.121887 -4.201567
									CHANNELS 3 Xrotation Yrotation Zrotation
									JOINT newVegas:LeftHandRing2
									{
										OFFSET 2.733170 0.000000 0.000000
										CHANNELS 3 Xrotation Yrotation Zrotation
										JOINT newVegas:LeftHandRing3
										{
											OFFSET 3.178268 0.000000 0.000000
											CHANNELS 3 Xrotation Yrotation Zrotation
											End Site
											{
												OFFSET 0.119102 3.170624 0.185394
											}
										}
									}
								}
								JOINT newVegas:LeftHandPinky1
								{
									OFFSET 15.989624 -0.606689 -7.535461
									CHANNELS 3 Xrotation Yrotation Zrotation
									JOINT newVegas:LeftHandPinky2
									{
										OFFSET 2.538986 0.000000 0.000000
										CHANNELS 3 Xrotation Yrotation Zrotation
										JOINT newVegas:LeftHandPinky3
										{
											OFFSET 2.593102 0.000000 0.000000
											CHANNELS 3 Xrotation Yrotation Zrotation
											End Site
											{
												OFFSET -0.150902 2.584198 0.152708
											}
										}
									}
								}
							}
							JOINT newVegas:Left_Sleeve
							{
								OFFSET 0.267448 -0.649796 0.577675
								CHANNELS 3 Xrotation Yrotation Zrotation
								End Site
								{
									OFFSET 0.000000 15.991241 0.000000
								}
							}
							JOINT newVegas:Left_CapeC
							{
								OFFSET 15.715958 -8.608795 -6.935905
								CHANNELS 3 Xrotation Yrotation Zrotation
								JOINT newVegas:Left_CapeC1
								{
									OFFSET 0.000000 -8.688499 0.000000
									CHANNELS 3 Xrotation Yrotation Zrotation
									End Site
									{
										OFFSET 0.000000 8.688499 0.000000
									}
								}
							}
						}
						JOINT newVegas:Left_CapeB
						{
							OFFSET 26.118385 -8.608795 -7.079235
							CHANNELS 3 Xrotation Yrotation Zrotation
							JOINT newVegas:Left_CapeB1
							{
								OFFSET 0.000000 -8.688499 0.000000
								CHANNELS 3 Xrotation Yrotation Zrotation
								End Site
								{
									OFFSET 0.000000 8.688499 0.000000
								}
							}
						}
						JOINT newVegas:Left_CapeA
						{
							OFFSET 5.115639 -8.608795 -10.395809
							CHANNELS 3 Xrotation Yrotation Zrotation
							JOINT newVegas:Left_CapeA1
							{
								OFFSET 0.000000 -8.688499 0.000000
								CHANNELS 3 Xrotation Yrotation Zrotation
								End Site
								{
									OFFSET 0.000000 8.688499 0.000000
								}
							}
						}
					}
				}
				JOINT newVegas:RightShoulder
				{
					OFFSET -15.263000 10.923401 -0.547700
					CHANNELS 3 Xrotation Yrotation Zrotation
					JOINT newVegas:RightArm
					{
						OFFSET -25.438599 -2.830597 -13.032500
						CHANNELS 3 Xrotation Yrotation Zrotation
						JOINT newVegas:RightForeArm
						{
							OFFSET -29.960503 0.000000 0.000000
							CHANNELS 3 Xrotation Yrotation Zrotation
							JOINT newVegas:RightHand
							{
								OFFSET -27.849251 0.000000 0.000000
								CHANNELS 3 Xrotation Yrotation Zrotation
								JOINT newVegas:RightHandThumb1
								{
									OFFSET -4.487587 -3.305161 6.305391
									CHANNELS 3 Xrotation Yrotation Zrotation
									JOINT newVegas:RightHandThumb2
									{
										OFFSET -5.480453 -3.164139 3.164143
										CHANNELS 3 Xrotation Yrotation Zrotation
										JOINT newVegas:RightHandThumb3
										{
											OFFSET -5.159721 -2.978973 2.978967
											CHANNELS 3 Xrotation Yrotation Zrotation
											End Site
											{
												OFFSET -2.494507 5.926697 1.738678
											}
										}
									}
								}
								JOINT newVegas:RightHandIndex1
								{
									OFFSET -18.578728 -0.527832 5.208049
									CHANNELS 3 Xrotation Yrotation Zrotation
									JOINT newVegas:RightHandIndex2
									{
										OFFSET -3.192009 0.000000 0.000000
										CHANNELS 3 Xrotation Yrotation Zrotation
										JOINT newVegas:RightHandIndex3
										{
											OFFSET -3.835129 0.000000 0.000000
											CHANNELS 3 Xrotation Yrotation Zrotation
											End Site
											{
												OFFSET 0.034599 3.816971 0.371180
											}
										}
									}
								}
								JOINT newVegas:RightHandMiddle1
								{
									OFFSET -18.476105 0.000000 0.000000
									CHANNELS 3 Xrotation Yrotation Zrotation
									JOINT newVegas:RightHandMiddle2
									{
										OFFSET -3.324875 0.000000 0.000000
										CHANNELS 3 Xrotation Yrotation Zrotation
										JOINT newVegas:RightHandMiddle3
										{
											OFFSET -4.596550 0.000000 0.000000
											CHANNELS 3 Xrotation Yrotation Zrotation
											End Site
											{
												OFFSET -0.057701 4.578827 0.399218
											}
										}
									}
								}
								JOINT newVegas:RightHandRing1
								{
									OFFSET -17.732719 0.121887 -4.201567
									CHANNELS 3 Xrotation Yrotation Zrotation
									JOINT newVegas:RightHandRing2
									{
										OFFSET -2.733170 0.000000 0.000000
										CHANNELS 3 Xrotation Yrotation Zrotation
										JOINT newVegas:RightHandRing3
										{
											OFFSET -3.178268 0.000000 0.000000
											CHANNELS 3 Xrotation Yrotation Zrotation
											End Site
											{
												OFFSET -0.119102 3.170624 0.185394
											}
										}
									}
								}
								JOINT newVegas:RightHandPinky1
								{
									OFFSET -15.989624 -0.606689 -7.535461
									CHANNELS 3 Xrotation Yrotation Zrotation
									JOINT newVegas:RightHandPinky2
									{
										OFFSET -2.538986 0.000000 0.000000
										CHANNELS 3 Xrotation Yrotation Zrotation
										JOINT newVegas:RightHandPinky3
										{
											OFFSET -2.593102 0.000000 0.000000
											CHANNELS 3 Xrotation Yrotation Zrotation
											End Site
											{
												OFFSET 0.150902 2.584198 0.152708
											}
										}
									}
								}
							}
							JOINT newVegas:Right_CapeC
							{
								OFFSET -15.715958 -8.608795 -6.935905
								CHANNELS 3 Xrotation Yrotation Zrotation
								JOINT newVegas:Right_CapeC1
								{
									OFFSET 0.000000 -8.688499 0.000000
									CHANNELS 3 Xrotation Yrotation Zrotation
									End Site
									{
										OFFSET 0.000000 8.688499 0.000000
									}
								}
							}
							JOINT newVegas:Right_Sleeve
							{
								OFFSET -0.267448 -0.649994 0.577675
								CHANNELS 3 Xrotation Yrotation Zrotation
								End Site
								{
									OFFSET 0.000000 15.991302 0.000000
								}
							}
						}
						JOINT newVegas:Right_CapeA
						{
							OFFSET -5.115540 -8.608795 -10.395824
							CHANNELS 3 Xrotation Yrotation Zrotation
							JOINT newVegas:Right_CapeA1
							{
								OFFSET 0.000000 -8.688499 0.000000
								CHANNELS 3 Xrotation Yrotation Zrotation
								End Site
								{
									OFFSET 0.000000 8.688499 0.000000
								}
							}
						}
						JOINT newVegas:Right_CapeB
						{
							OFFSET -26.118187 -8.608795 -7.079266
							CHANNELS 3 Xrotation Yrotation Zrotation
							JOINT newVegas:Right_CapeB1
							{
								OFFSET 0.000000 -8.688499 0.000000
								CHANNELS 3 Xrotation Yrotation Zrotation
								End Site
								{
									OFFSET 0.000000 8.688499 0.000000
								}
							}
						}
					}
				}
				JOINT newVegas:Left_Collar
				{
					OFFSET 18.625099 8.655502 8.828100
					CHANNELS 3 Xrotation Yrotation Zrotation
					JOINT newVegas:Left_Collar1
					{
						OFFSET 14.783401 10.540405 -1.259500
						CHANNELS 3 Xrotation Yrotation Zrotation
						End Site
						{
							OFFSET 0.000000 18.199875 0.000000
						}
					}
				}
				JOINT newVegas:Collar_Back
				{
					OFFSET 0.000000 15.630707 -20.132601
					CHANNELS 3 Xrotation Yrotation Zrotation
					End Site
					{
						OFFSET 0.000000 22.523010 0.000000
					}
				}
				JOINT newVegas:Left_Peck
				{
					OFFSET 17.239599 -5.132599 25.482599
					CHANNELS 3 Xrotation Yrotation Zrotation
					End Site
					{
						OFFSET 0.000000 22.523010 0.000000
					}
				}
				JOINT newVegas:Right_Peck
				{
					OFFSET -17.239599 -5.132202 25.482599
					CHANNELS 3 Xrotation Yrotation Zrotation
					End Site
					{
						OFFSET 0.000000 22.523010 0.000000
					}
				}
				JOINT newVegas:Right_Collar
				{
					OFFSET -18.625099 8.655792 8.828100
					CHANNELS 3 Xrotation Yrotation Zrotation
					JOINT newVegas:Right_Collar1
					{
						OFFSET -14.783401 10.539993 -1.259500
						CHANNELS 3 Xrotation Yrotation Zrotation
						End Site
						{
							OFFSET 0.000000 18.199631 0.000000
						}
					}
				}
			}
		}
		JOINT newVegas:Belly
		{
			OFFSET 0.000000 -6.540398 9.014299
			CHANNELS 3 Xrotation Yrotation Zrotation
			End Site
			{
				OFFSET 0.000000 11.566666 0.000000
			}
		}
	}
	JOINT newVegas:ElvisFacialAnim_Joint
	{
		OFFSET 1.000000 -95.330101 -8.825800
		CHANNELS 3 Xrotation Yrotation Zrotation
		End Site
		{
			OFFSET 0.000000 35.315800 0.000000
		}
	}
}
MOTION
Frames: 4
Frame Time: 0.033333
-1.408751 43.969185 3.695831 42.614650 -51.912921 32.696577 0.000002 -0.000000 0.000000 -116.535431 -44.204971 36.199241 120.872724 -28.153434 -0.725561 -18.916892 -3.482903 -25.396277 -0.000000 0.000005 0.000000 -0.000000 0.000000 0.000003 -129.862387 27.145573 -32.410033 134.823918 17.557969 -0.484838 -7.635046 -5.106045 12.110343 -0.000000 -0.000000 0.000000 -0.000000 0.000000 -0.000002 2.918073 -0.614236 -1.143471 7.291739 -1.832989 -2.593641 7.291676 -1.832912 -2.593706 1.421364 5.529764 -2.532971 1.421341 5.529767 -2.532977 -0.000002 0.000000 -0.000000 1.421344 5.529783 -2.532974 1.421423 5.529768 -2.532978 -0.000000 0.000000 0.000002 -0.000002 0.000000 -0.000001 9.754774 -6.523601 -9.327095 -72.504610 -11.571769 -30.889196 36.850824 -14.101785 14.457157 5.855899 -10.179034 -1.871783 40.109798 -15.297341 -0.360625 5.639983 28.098452 11.338876 0.000003 0.000000 -0.000001 6.882141 2.840160 -61.140473 8.244858 7.644217 -89.898076 -0.000001 -0.000001 -0.000000 -2.345614 4.688877 -62.655327 8.759091 9.892843 -87.051642 -0.000001 -0.000002 -0.000000 -9.042602 10.045796 -60.766151 8.524079 9.508772 -66.893254 -0.000000 -0.000002 -0.000002 -17.946831 14.755155 -51.486126 8.857201 8.678377 -84.811750 -0.000000 -0.000005 -0.000001 0.000000 0.000001 0.000004 0.000000 0.000001 0.000004 -0.000000 0.000001 0.000004 0.000002 0.000004 -0.000004 0.000002 0.000003 -0.000004 0.000002 0.000004 -0.000004 0.000002 0.000003 -0.000005 9.052004 13.976388 25.183631 0.599978 2.181634 21.186799 -6.097510 21.565598 4.132729 -3.508763 -2.213086 1.920811 -2.344876 -6.102485 10.731060 2.364136 -23.806652 -8.771190 0.000004 -0.000001 -0.000004 -0.051483 0.532033 0.735902 0.020117 -0.087252 5.082598 0.000002 0.000001 0.000000 0.354888 -5.916385 2.583372 1.432742 -4.204208 24.052675 -0.000004 -0.000001 -0.000003 1.205828 -11.756000 4.154147 1.798986 -3.779071 26.866331 -0.000001 0.000001 -0.000002 2.126278 -19.166740 11.319140 3.363384 -2.108365 18.830205 0.000001 -0.000000 -0.000000 0.000001 -0.000002 -0.000002 0.000001 -0.000002 -0.000002 0.000001 -0.000002 -0.000003 0.000001 0.000000 0.000001 0.000001 0.000001 0.000001 0.000001 0.000000 0.000001 0.000001 0.000001 0.000000 0.000003 -0.000001 0.000003 0.000003 -0.000001 0.000003 0.000003 -0.000001 0.000003 0.000003 -0.000001 0.000003 0.000003 -0.000001 0.000003 0.000003 -0.000001 0.000003 0.000003 -0.000001 0.000003 -0.000001 -0.000001 0.000000 0.000002 -0.000000 0.000000 
-1.473030 44.000641 4.321249 41.901616 -51.158752 31.869526 0.000001 0.000001 -0.000001 -117.896264 -43.599789 34.747491 121.490706 -28.255021 -0.784691 -19.143642 -3.483040 -24.528621 -0.000000 -0.000000 0.000000 -0.000000 -0.000002 0.000001 -127.150911 28.900091 -33.748795 134.804083 18.922718 -0.347731 -8.850703 -5.569706 13.674503 0.000000 0.000000 -0.000000 0.000000 0.000001 -0.000001 2.758175 -0.103569 -1.323900 7.150281 -1.664537 -2.952707 6.998928 -1.192269 -3.344474 1.506567 5.809862 -2.782991 1.506595 5.809848 -2.782997 0.000001 -0.000000 0.000002 1.506679 5.809860 -2.783006 1.506474 5.809899 -2.782996 0.000001 0.000001 0.000000 0.000001 -0.000000 0.000001 10.300541 -7.241356 -7.842048 -72.221430 -11.084616 -31.680173 37.665577 -16.912056 15.799006 5.915776 -10.678173 -1.311933 40.109804 -15.297341 -0.360624 5.639992 28.098459 11.338879 0.000002 0.000002 0.000001 6.882143 2.840159 -61.140473 8.244860 7.644218 -89.898076 0.000002 0.000003 0.000000 -2.345614 4.688877 -62.655327 8.759088 9.892843 -87.051642 -0.000000 0.000000 -0.000000 -9.042604 10.045796 -60.766144 8.524078 9.508775 -66.893247 0.000001 -0.000002 0.000002 -17.946827 14.755155 -51.486123 8.857200 8.678376 -84.811750 -0.000000 -0.000003 -0.000000 0.000000 0.000001 -0.000003 0.000000 0.000001 -0.000003 -0.000000 0.000001 -0.000003 0.000002 0.000002 -0.000000 0.000002 0.000001 -0.000003 0.000002 0.000002 -0.000000 0.000000 0.000001 -0.000001 9.024511 13.542576 26.708200 4.215046 2.674343 21.341367 -5.385183 21.831279 3.929141 -3.568176 -2.612767 2.875992 -4.360803 -5.242583 8.990146 2.499568 -24.279202 -8.826881 -0.000002 -0.000000 -0.000000 -0.321938 -0.661263 0.574351 -0.379130 -0.971907 4.710862 -0.000002 0.000003 0.000001 0.119145 -6.021158 3.357192 1.513239 -4.442655 24.876696 0.000001 -0.000004 0.000001 0.311379 -11.830408 4.220349 1.801510 -3.777184 26.392981 -0.000002 0.000001 -0.000001 0.377106 -19.064264 10.950363 3.504023 -2.056456 18.633089 -0.000000 0.000003 -0.000003 0.000002 -0.000000 -0.000001 0.000003 -0.000003 -0.000003 0.000002 -0.000001 -0.000001 -0.000000 0.000000 -0.000000 -0.000000 0.000001 -0.000000 -0.000000 0.000000 -0.000000 -0.000000 0.000001 -0.000001 -0.000003 0.000000 -0.000000 -0.000003 0.000000 -0.000000 -0.000003 0.000000 -0.000000 -0.000003 0.000000 -0.000000 -0.000003 0.000000 -0.000000 -0.000003 0.000000 -0.000000 -0.000003 0.000000 -0.000000 -0.000000 0.000002 -0.000001 0.000001 0.000001 -0.000001 
-1.534258 44.025162 4.943621 41.198946 -50.362895 31.055142 0.000002 -0.000003 -0.000000 -119.102516 -43.073454 33.057887 122.071941 -28.233089 -0.844606 -19.524400 -3.322230 -23.905312 -0.000000 0.000003 0.000000 -0.000000 -0.000002 0.000002 -124.398591 30.548038 -35.245371 134.710387 20.313367 -0.241648 -9.889194 -6.086831 15.195383 0.000001 0.000000 -0.000000 -0.000000 -0.000001 -0.000001 2.591795 0.459393 -1.530700 7.018221 -1.470863 -3.332247 6.715579 -0.482447 -4.149483 1.592332 6.082395 -3.034356 1.592329 6.082385 -3.034361 -0.000001 0.000000 -0.000000 1.592331 6.082417 -3.034371 1.592368 6.082361 -3.034355 -0.000000 0.000000 0.000000 -0.000001 0.000000 -0.000000 10.956277 -7.990185 -6.158879 -72.037998 -10.613831 -32.634333 38.644333 -19.672034 17.215316 5.975052 -11.219197 -0.783456 40.109804 -15.297341 -0.360634 5.639985 28.098452 11.338874 0.000002 0.000002 0.000003 6.882141 2.840161 -61.140479 8.244859 7.644217 -89.898076 0.000000 0.000006 0.000001 -2.345614 4.688881 -62.655327 8.759088 9.892843 -87.051642 -0.000000 0.000003 -0.000000 -9.042602 10.045800 -60.766151 8.524077 9.508773 -66.893247 0.000001 -0.000001 0.000002 -17.946831 14.755160 -51.486130 8.857201 8.678378 -84.811757 0.000000 -0.000005 -0.000001 0.000000 -0.000000 0.000001 0.000000 -0.000000 0.000001 0.000001 -0.000000 0.000000 0.000002 0.000001 -0.000001 0.000002 0.000000 -0.000000 0.000002 0.000001 -0.000001 -0.000000 0.000002 -0.000001 9.111117 12.896033 28.265276 8.291937 3.298006 21.595791 -4.606922 22.180312 3.732776 -3.608835 -2.961437 4.015847 -6.423953 -4.335279 7.276826 2.635288 -24.754769 -8.881448 -0.000000 -0.000005 -0.000003 -0.660677 -1.817489 0.275475 -0.830246 -1.927035 4.185181 -0.000003 -0.000001 0.000000 -0.133801 -6.098403 4.104177 1.607855 -4.699723 25.673889 -0.000000 -0.000001 -0.000000 -0.580797 -11.939791 4.209552 1.804726 -3.775279 25.823347 0.000001 -0.000001 0.000004 -1.292221 -19.160047 10.541413 3.650614 -2.000314 18.403111 -0.000000 0.000005 0.000001 -0.000000 0.000002 0.000001 -0.000002 -0.000000 0.000000 -0.000000 0.000002 0.000001 -0.000004 0.000000 -0.000000 -0.000004 0.000001 0.000000 -0.000004 0.000000 -0.000000 -0.000004 0.000001 -0.000000 -0.000002 0.000002 0.000001 -0.000002 0.000002 0.000001 -0.000002 0.000002 0.000001 -0.000002 0.000002 0.000001 -0.000002 0.000002 0.000001 -0.000002 0.000002 0.000001 -0.000002 0.000002 0.000001 0.000003 0.000002 0.000001 0.000002 -0.000003 -0.000000 
-1.584370 44.124794 5.621281 40.409192 -49.408735 30.176602 -0.000000 -0.000000 0.000001 -120.280055 -42.290445 31.020216 122.578331 -28.011036 -0.890366 -20.030991 -3.085127 -23.303253 -0.000000 -0.000000 0.000000 -0.000000 0.000000 -0.000000 -121.133610 32.122305 -37.094436 134.452465 21.743417 -0.161790 -11.015679 -6.672253 16.817900 0.000000 0.000000 -0.000000 -0.000001 0.000000 -0.000001 2.418150 1.098941 -1.741390 6.925830 -1.169219 -3.801076 6.480183 0.370091 -5.069904 1.640307 6.328124 -3.291777 1.640316 6.328116 -3.291779 -0.000001 0.000002 -0.000002 1.640267 6.328140 -3.291783 1.640391 6.328129 -3.291793 -0.000002 0.000000 -0.000000 -0.000001 0.000002 -0.000001 11.598789 -8.953010 -4.526955 -72.144064 -10.623640 -33.892310 39.901316 -21.853807 18.547338 5.964392 -11.924130 -0.391997 40.109804 -15.297341 -0.360626 5.639989 28.098456 11.338874 0.000001 -0.000001 -0.000001 6.882143 2.840159 -61.140473 8.244860 7.644217 -89.898076 0.000000 -0.000001 0.000001 -2.345614 4.688879 -62.655327 8.759090 9.892843 -87.051642 0.000001 0.000000 0.000000 -9.042606 10.045798 -60.766144 8.524081 9.508769 -66.893240 0.000001 0.000001 0.000000 -17.946824 14.755157 -51.486123 8.857201 8.678379 -84.811757 0.000000 -0.000005 -0.000000 -0.000001 -0.000001 -0.000000 -0.000001 -0.000001 -0.000000 -0.000000 -0.000001 -0.000001 0.000001 -0.000001 0.000000 0.000001 -0.000002 -0.000001 0.000001 -0.000001 0.000000 -0.000001 -0.000000 0.000000 9.279944 12.106696 29.911024 12.850339 3.983853 21.811591 -4.092551 22.747933 3.655291 -3.640796 -3.432359 5.265489 -8.423817 -3.430938 5.683195 2.765638 -25.211132 -8.932365 0.000001 0.000002 0.000001 -0.947784 -2.730816 0.240355 -1.216425 -2.731697 3.914270 -0.000002 -0.000002 -0.000001 -0.383832 -6.100852 4.910517 1.695750 -4.914054 26.527809 0.000000 0.000001 -0.000000 -1.424734 -12.066427 4.419596 1.806670 -3.773844 25.484074 0.000001 0.000001 0.000002 -2.812570 -19.410192 10.368450 3.791519 -1.945771 18.378116 0.000000 0.000002 -0.000002 0.000001 0.000001 -0.000001 0.000001 -0.000003 -0.000001 0.000001 0.000001 -0.000000 0.000001 -0.000003 -0.000000 0.000001 -0.000003 -0.000000 0.000001 -0.000003 -0.000000 0.000001 -0.000003 -0.000000 -0.000003 -0.000001 0.000002 -0.000003 -0.000001 0.000002 -0.000003 -0.000001 0.000002 -0.000003 -0.000001 0.000002 -0.000003 -0.000001 0.000002 -0.000003 -0.000001 0.000002 -0.000003 -0.000001 0.000002 -0.000000 0.000001 -0.000001 -0.000000 -0.000000 0.000001 
